<svg width="64" height="64" xmlns="http://www.w3.org/2000/svg"><path d="M32 59.685c15.268 0 27.685-12.42 27.685-27.689a27.505 27.505 0 0 0-5.618-16.692 25.17 25.17 0 0 0-1.742-2.077 24.075 24.075 0 0 0-1.674-1.665 26.275 26.275 0 0 0-2.201-1.815A27.528 27.528 0 0 0 32 4.315c-15.264 0-27.685 12.417-27.685 27.681 0 5.275 1.484 10.21 4.057 14.413.431.71.895 1.395 1.392 2.06a25.48 25.48 0 0 0 1.814 2.199c.528.58 1.085 1.14 1.661 1.67a26.828 26.828 0 0 0 2.086 1.745c.609.464 1.233.9 1.883 1.307A27.518 27.518 0 0 0 32 59.685zM32 0c17.648 0 32 14.353 32 31.996C64 49.643 49.648 64 32 64 14.357 64 0 49.643 0 31.996 0 14.353 14.357 0 32 0zm2.56 30.123V17.749H32c-1.397 0-2.56 1.125-2.56 2.474v7.425c0 1.35 1.163 2.475 2.56 2.475h2.56zm6.4 19.797h-6.4V35.072h-.408L29.44 49.92h-6.4l5.294-15.41c-1.978-.62-3.782-1.744-5.294-3.15V16.512C25.483 14.206 28.625 12.8 32 12.8h8.96v37.12z" fill="#FA130C" fill-rule="evenodd"/></svg>